<svg id="Layer_1" data-name="Layer 1" xmlns="http://www.w3.org/2000/svg" width="100%" height="" viewBox="0 0 168.2 60.7">
  <defs>
    <style>
      .cls-1 {
        fill: #fff;
      }

      .cls-2 {
        fill: #fff;
      }

      .cls-3 {
        fill: #fff;
      }

      .cls-4 {
        fill: #fff;
      }

      .cls-5 {
        fill: #fff;
      }
    </style>
  </defs>
  <title>fila-da-creche-logo-2</title>
  <path id="_Compound_Path_" data-name="&lt;Compound Path&gt;" class="cls-1" d="M396.9,281.2c1.2-3.2,5.3-5.9,10-5.6,1.7,0.1,5.1,1.5,6.2,3,1.8,2.3.9,5.1-.6,7-2,2.4-5.5,5.9-10.8,4.8A6.67,6.67,0,0,1,396.9,281.2Zm3.2-2c1.5-.2,2.1-1.2,2.6-2.4C401.2,277,400.6,278.1,400.1,279.2Zm4,7.2c4.2,2.7,11-1.4,8.4-6.8-1.2-2.5-7.5-4.2-9.4-1.2C401.3,281.1,401.8,284.9,404.1,286.4Zm-3.8-3.4a0.62,0.62,0,0,0,.8-0.8C400.4,282.1,400.2,282.3,400.3,283Zm0.4,3c1.1,0.1,1.5-1.1.6-1.4C401.2,285.1,400.5,285.2,400.7,286Z" transform="translate(-396.2 -250.1)"/>
  <path id="_Compound_Path_2" data-name="&lt;Compound Path&gt;" class="cls-2" d="M425,281.2c1.2-3.2,5.3-5.9,10-5.6,1.7,0.1,5.1,1.5,6.2,3,1.8,2.3.9,5.1-.6,7-2,2.4-5.5,5.9-10.8,4.8A6.67,6.67,0,0,1,425,281.2Zm3.2-2c1.5-.2,2.1-1.2,2.6-2.4C429.4,277,428.8,278.1,428.2,279.2Zm4,7.2c4.2,2.7,11-1.4,8.4-6.8-1.2-2.5-7.5-4.2-9.4-1.2C429.4,281.1,430,284.9,432.2,286.4Zm-3.8-3.4a0.62,0.62,0,0,0,.8-0.8C428.6,282.1,428.3,282.3,428.4,283Zm0.4,3c1.1,0.1,1.5-1.1.6-1.4C429.3,285.1,428.7,285.2,428.8,286Z" transform="translate(-396.2 -250.1)"/>
  <path id="_Compound_Path_3" data-name="&lt;Compound Path&gt;" class="cls-3" d="M453.2,281.2c1.2-3.2,5.3-5.9,10-5.6,1.7,0.1,5.1,1.5,6.2,3,1.8,2.3.9,5.1-.6,7-2,2.4-5.5,5.9-10.8,4.8A6.67,6.67,0,0,1,453.2,281.2Zm3.2-2c1.5-.2,2.1-1.2,2.6-2.4C457.5,277,456.9,278.1,456.4,279.2Zm4,7.2c4.2,2.7,11-1.4,8.4-6.8-1.2-2.5-7.5-4.2-9.4-1.2C457.6,281.1,458.1,284.9,460.4,286.4Zm-3.8-3.4a0.62,0.62,0,0,0,.8-0.8C456.7,282.1,456.5,282.3,456.6,283Zm0.4,3c1.1,0.1,1.5-1.1.6-1.4C457.5,285.1,456.9,285.2,457,286Z" transform="translate(-396.2 -250.1)"/>
  <path id="_Compound_Path_4" data-name="&lt;Compound Path&gt;" class="cls-4" d="M545.5,288.4c-1.6-.3-3.6.1-5.8-0.2-1.3-.2-3-0.7-4.2-0.8s-1.6,0-2.3-.6c-0.2-1.6-.4-3.3-0.6-4.8a11,11,0,0,1,2.1-1.4,13,13,0,0,1,1.8-1.5c2.6-1,5.8.6,8.7-.1,0.6-.9-0.2-2.1,0-3s1.6-1.4,2.3-2a4.7,4.7,0,0,1,1.2-.9c1,0.3,6.1,5.9,8,8.2,0.3,0.3.7,0.9,1.2,1.4,1.1,1.1,1.7,1.7.5,3.3-0.4.6-1.3,1.1-1.8,1.8s-1.1,1.6-1.5,2.1c-0.8.7-2.5,1.1-3.7,1.6-1.9.8-3.2,1.6-5,1.8C545.3,292.5,545.8,289.8,545.5,288.4Zm1.3-13a2.89,2.89,0,0,0,1.8-1.4A2.75,2.75,0,0,0,546.8,275.4Zm2.2,4.3c-2.4-.3-5.1-0.2-7.5-0.3-1.9-.1-3.7-0.4-5,0.3,0,1.1-.2,3.4.6,4.5,3.7,0.9,8,.7,11.8.5,0.3,1.5.3,3.6,0.7,4.9a34.7,34.7,0,0,0,4.6-2.5c0.7-.4,1.4-0.9,2.2-1.4,0.4-.3,2.1-1,2.2-1.4,0.2-.8-1.4-1.9-2.1-2.6-0.8-.9-1.7-1.7-2.4-2.5-1.6-2-3.4-3.2-4.9-5.4C548.9,275.8,549.5,278.1,549,279.7Zm-2.8-1.8c-0.1.3,0.2,0.3,0.1,0.6,0.5,0,.5-0.4.6-0.8A1,1,0,0,0,546.2,277.9Zm-12.1,3.8a1.77,1.77,0,0,0,1.6-.9v-0.4A2.93,2.93,0,0,0,534.1,281.7Zm-1,.6c0.4,0.3,1.1-.3.8-0.6C533.7,281.9,533,281.7,533.1,282.3Zm1,1.7c0.7-.5,2.1-0.5,1.8-2A7,7,0,0,0,534.1,284Zm-0.5-.7c0.3,0.1.4-.5,0.2-0.6C533.7,282.9,533.3,283,533.6,283.3Zm1.8,2.9a3.54,3.54,0,0,0,1.6-.9C536.1,284.8,535.6,285.5,535.4,286.2Zm3.3-.6c-0.1.5,0.5,0.2,0.6,0A0.63,0.63,0,0,0,538.7,285.6Zm1.6,0.6c0.2-.3.9-0.2,0.9-0.6C540.7,285.3,540.1,285.9,540.3,286.2Zm6.2-.2c0.3-.1.7-0.1,0.7-0.5A0.55,0.55,0,0,0,546.5,286Zm-4.3.2a0.49,0.49,0,0,0,.4-0.6h-0.3A1.08,1.08,0,0,0,542.2,286.2Zm2.3-.1c0.3-.1.6-0.1,0.5-0.5C544.6,285.5,544.6,285.8,544.5,286.1Zm-8.6.8h0.8c0-.5.6-0.6,0.7-1C536.9,286.3,536.1,286.3,535.9,286.9Zm5.7,0.8a2.25,2.25,0,0,0,1.2.1c-0.3-.9.7-1,0.4-1.5A10,10,0,0,0,541.6,287.7Zm5,0.5c0.5-.6,2.1-0.6,1.7-1.7A2.26,2.26,0,0,0,546.6,288.2Zm-2.9-.5a1.12,1.12,0,0,0,1.2-1A2.94,2.94,0,0,0,543.7,287.7Zm-3.8-.2h0.7a1.91,1.91,0,0,0,.3-0.8A1.37,1.37,0,0,0,539.9,287.5Zm15.2,1.2c0.5,0.1.4-.5,0.6-0.6A0.65,0.65,0,0,0,555.1,288.7Zm-2.4,1.5c0.9,0.1,1.1-1.1,1.1-1.5A14.31,14.31,0,0,1,552.7,290.2Zm-6.4-.9a0.57,0.57,0,0,0,.6-0.4A0.49,0.49,0,0,0,546.3,289.3Zm1.2,1.6a1.09,1.09,0,0,0,1.2-1.3A1.48,1.48,0,0,0,547.5,290.9Zm3.3,0.1a0.56,0.56,0,0,0,.6-0.7A0.86,0.86,0,0,0,550.8,291Zm-3.3,1.4a5,5,0,0,0,1.3-.4v-0.6A1.52,1.52,0,0,0,547.5,292.4Z" transform="translate(-396.2 -250.1)"/>
  <path id="_Path_" data-name="&lt;Path&gt;" class="cls-4" d="M397.7,264.8a0.91,0.91,0,0,1-.3-0.7V251.3a1,1,0,0,1,1-1h8.2a0.6,0.6,0,0,1,.6.3,0.86,0.86,0,0,1,.3.6,0.71,0.71,0,0,1-.3.6,0.91,0.91,0,0,1-.7.3h-7.2v4.6h6.5a0.6,0.6,0,0,1,.6.3,0.86,0.86,0,0,1,.3.6,0.71,0.71,0,0,1-.3.6,0.86,0.86,0,0,1-.6.3h-6.5v5.6a1,1,0,0,1-1,1A0.86,0.86,0,0,1,397.7,264.8Z" transform="translate(-396.2 -250.1)"/>
  <path id="_Path_2" data-name="&lt;Path&gt;" class="cls-4" d="M410.1,264.8a0.91,0.91,0,0,1-.3-0.7v-13a1,1,0,0,1,2,0v13A1,1,0,0,1,410.1,264.8Z" transform="translate(-396.2 -250.1)"/>
  <path id="_Path_3" data-name="&lt;Path&gt;" class="cls-4" d="M415.8,264.6a1.22,1.22,0,0,1-.4-0.9V251.1a1,1,0,0,1,2,0V263h6.9a1,1,0,0,1,0,2h-7.5A3,3,0,0,1,415.8,264.6Z" transform="translate(-396.2 -250.1)"/>
  <path id="_Compound_Path_5" data-name="&lt;Compound Path&gt;" class="cls-4" d="M426.1,264.8a0.91,0.91,0,0,1-.3-0.7,0.6,0.6,0,0,1,.1-0.4l5.4-12.7a1,1,0,0,1,.5-0.6,1,1,0,0,1,.7-0.2h0.2a1.45,1.45,0,0,1,.7.2,2.65,2.65,0,0,1,.5.6l5.4,12.6a0.76,0.76,0,0,1,.1.4,1,1,0,0,1-1,1,0.76,0.76,0,0,1-.5-0.2,0.78,0.78,0,0,1-.4-0.4l-1.4-3.3H429l-1.4,3.3a0.78,0.78,0,0,1-.4.4,1.06,1.06,0,0,1-.5.2A0.48,0.48,0,0,1,426.1,264.8Zm3.6-5.4h5.7l-2.8-6.8Z" transform="translate(-396.2 -250.1)"/>
  <path id="_Compound_Path_6" data-name="&lt;Compound Path&gt;" class="cls-4" d="M447.5,264.7a0.91,0.91,0,0,1-.3-0.7V251.3a1,1,0,0,1,1-1h4.2a7.59,7.59,0,0,1,4.1,1.1,7,7,0,0,1,3.3,6.2,8.53,8.53,0,0,1-.8,3.5,6.47,6.47,0,0,1-2.5,2.7,7.59,7.59,0,0,1-4.1,1.1h-4.2A0.75,0.75,0,0,1,447.5,264.7Zm4.6-1.5a5.79,5.79,0,0,0,3-.7,4.82,4.82,0,0,0,2-2,5.69,5.69,0,0,0-2-7.8,6,6,0,0,0-3-.7h-3v11.1h3v0.1Z" transform="translate(-396.2 -250.1)"/>
  <path id="_Compound_Path_7" data-name="&lt;Compound Path&gt;" class="cls-4" d="M461.6,264.8a0.91,0.91,0,0,1-.3-0.7,0.6,0.6,0,0,1,.1-0.4l5.4-12.7a1,1,0,0,1,.5-0.6,1,1,0,0,1,.7-0.2h0.2a1.45,1.45,0,0,1,.7.2,2.65,2.65,0,0,1,.5.6l5.4,12.6a0.76,0.76,0,0,1,.1.4,1,1,0,0,1-1,1,0.76,0.76,0,0,1-.5-0.2,0.78,0.78,0,0,1-.4-0.4l-1.4-3.3h-7.1l-1.4,3.3a0.78,0.78,0,0,1-.4.4,1.06,1.06,0,0,1-.5.2A0.48,0.48,0,0,1,461.6,264.8Zm3.6-5.4h5.7l-2.8-6.8Z" transform="translate(-396.2 -250.1)"/>
  <path id="_Path_4" data-name="&lt;Path&gt;" class="cls-4" d="M485.4,264.2a6.51,6.51,0,0,1-2.6-2.6,8.46,8.46,0,0,1-1-4,7.44,7.44,0,0,1,1-4,7.2,7.2,0,0,1,2.6-2.6,7.9,7.9,0,0,1,3.8-.9,10.32,10.32,0,0,1,2.6.3,7.17,7.17,0,0,1,2.2,1,0.89,0.89,0,0,1,.5.8,1.42,1.42,0,0,1-.2.6,2.54,2.54,0,0,1-.7.2,0.6,0.6,0,0,1-.4-0.1,6.7,6.7,0,0,0-1.8-.7,12,12,0,0,0-2-.3,6.17,6.17,0,0,0-3.1.7,5.2,5.2,0,0,0-1.9,2,6.84,6.84,0,0,0-.6,2.9,6.53,6.53,0,0,0,.6,2.9,4.59,4.59,0,0,0,1.9,2,5.93,5.93,0,0,0,3.1.7,6,6,0,0,0,2-.3,13.36,13.36,0,0,0,1.8-.7,0.48,0.48,0,0,1,.4-0.1,0.85,0.85,0,0,1,.6.2,0.64,0.64,0,0,1,.2.6,0.89,0.89,0,0,1-.5.8,21.4,21.4,0,0,1-2.2,1,9.78,9.78,0,0,1-2.6.3A4.83,4.83,0,0,1,485.4,264.2Z" transform="translate(-396.2 -250.1)"/>
  <path id="_Compound_Path_8" data-name="&lt;Compound Path&gt;" class="cls-4" d="M497.2,264.8a0.91,0.91,0,0,1-.3-0.7V251.3a1,1,0,0,1,1-1h4.9a6.68,6.68,0,0,1,4.3,1.2,3.66,3.66,0,0,1,1.4,3.1,3.89,3.89,0,0,1-.7,2.3,4.26,4.26,0,0,1-2,1.5,3.07,3.07,0,0,1,2.1,1.9,7.92,7.92,0,0,1,.6,2.9v1a1,1,0,0,1-2,0v-0.6a11.08,11.08,0,0,0-.2-1.9,2.83,2.83,0,0,0-3.1-2.3h-4.3v4.9a1,1,0,0,1-1,1A4.23,4.23,0,0,1,497.2,264.8Zm5.5-7.4a5,5,0,0,0,2.9-.7,2.31,2.31,0,0,0,1.1-2,2.2,2.2,0,0,0-.9-1.9,5.64,5.64,0,0,0-3.1-.7H499v5.3h3.7Z" transform="translate(-396.2 -250.1)"/>
  <path id="_Path_5" data-name="&lt;Path&gt;" class="cls-4" d="M511.8,264.7a0.91,0.91,0,0,1-.3-0.7V251.3a1,1,0,0,1,1-1h8.4a0.6,0.6,0,0,1,.6.3,0.86,0.86,0,0,1,.3.6,0.71,0.71,0,0,1-.3.6,0.86,0.86,0,0,1-.6.3h-7.5v4.6h6.7a0.6,0.6,0,0,1,.6.3,0.86,0.86,0,0,1,.3.6,0.71,0.71,0,0,1-.3.6,0.86,0.86,0,0,1-.6.3h-6.7v4.7h7.5a0.6,0.6,0,0,1,.6.3,0.86,0.86,0,0,1,.3.6,0.71,0.71,0,0,1-.3.6,0.86,0.86,0,0,1-.6.3h-8.4A1.49,1.49,0,0,1,511.8,264.7Z" transform="translate(-396.2 -250.1)"/>
  <path id="_Path_6" data-name="&lt;Path&gt;" class="cls-4" d="M527.1,264.2a6.51,6.51,0,0,1-2.6-2.6,8.46,8.46,0,0,1-1-4,7.44,7.44,0,0,1,1-4,6.51,6.51,0,0,1,2.6-2.6,7.9,7.9,0,0,1,3.8-.9,10.32,10.32,0,0,1,2.6.3,7.17,7.17,0,0,1,2.2,1,0.89,0.89,0,0,1,.5.8,1.42,1.42,0,0,1-.2.6,0.73,0.73,0,0,1-.6.2,0.6,0.6,0,0,1-.4-0.1,6.7,6.7,0,0,0-1.8-.7,12,12,0,0,0-2-.3,6.17,6.17,0,0,0-3.1.7,5.2,5.2,0,0,0-1.9,2,6.84,6.84,0,0,0-.6,2.9,6.53,6.53,0,0,0,.6,2.9,4.59,4.59,0,0,0,1.9,2,5.93,5.93,0,0,0,3.1.7,6,6,0,0,0,2-.3,13.35,13.35,0,0,0,1.8-.7,0.48,0.48,0,0,1,.4-0.1,0.85,0.85,0,0,1,.6.2,0.64,0.64,0,0,1,.2.6,0.89,0.89,0,0,1-.5.8,21.4,21.4,0,0,1-2.2,1,6.89,6.89,0,0,1-2.6.3A5,5,0,0,1,527.1,264.2Z" transform="translate(-396.2 -250.1)"/>
  <path id="_Path_7" data-name="&lt;Path&gt;" class="cls-4" d="M538.9,264.8a0.91,0.91,0,0,1-.3-0.7v-13a1,1,0,0,1,2,0v5.6h8v-5.6a1,1,0,0,1,2,0v13a1,1,0,0,1-2,0v-5.6h-8v5.6A1,1,0,0,1,538.9,264.8Z" transform="translate(-396.2 -250.1)"/>
  <path id="_Path_8" data-name="&lt;Path&gt;" class="cls-4" d="M554.4,264.7a0.91,0.91,0,0,1-.3-0.7V251.3a1,1,0,0,1,1-1h8.4a0.6,0.6,0,0,1,.6.3,0.86,0.86,0,0,1,.3.6,0.71,0.71,0,0,1-.3.6,1.69,1.69,0,0,1-.6.3H556v4.6h6.7a0.6,0.6,0,0,1,.6.3,0.86,0.86,0,0,1,.3.6,0.71,0.71,0,0,1-.3.6,0.86,0.86,0,0,1-.6.3H556v4.7h7.5a0.6,0.6,0,0,1,.6.3,0.86,0.86,0,0,1,.3.6,0.71,0.71,0,0,1-.3.6,1.69,1.69,0,0,1-.6.3h-8.4A1.49,1.49,0,0,1,554.4,264.7Z" transform="translate(-396.2 -250.1)"/>
  <path id="_Compound_Path_9" data-name="&lt;Compound Path&gt;" class="cls-5" d="M481.3,281.2c1.2-3.2,5.3-5.9,10-5.6,1.7,0.1,5.1,1.5,6.2,3,1.8,2.3.9,5.1-.6,7-2,2.4-5.5,5.9-10.8,4.8A6.67,6.67,0,0,1,481.3,281.2Zm3.2-2c1.5-.2,2.1-1.2,2.6-2.4C485.7,277,485.1,278.1,484.5,279.2Zm4,7.2c4.2,2.7,11-1.4,8.4-6.8-1.2-2.5-7.5-4.2-9.4-1.2C485.7,281.1,486.3,284.9,488.5,286.4Zm-3.8-3.4a0.62,0.62,0,0,0,.8-0.8C484.9,282.1,484.6,282.3,484.7,283Zm0.4,3c1.1,0.1,1.5-1.1.6-1.4C485.6,285.1,485,285.2,485.1,286Z" transform="translate(-396.2 -250.1)"/>
  <path id="_Compound_Path_10" data-name="&lt;Compound Path&gt;" class="cls-4" d="M509.5,281.2c1.2-3.2,5.3-5.9,10-5.6,1.7,0.1,5.1,1.5,6.2,3,1.8,2.3.9,5.1-.6,7-2,2.4-5.5,5.9-10.8,4.8A6.67,6.67,0,0,1,509.5,281.2Zm3.2-2c1.5-.2,2.1-1.2,2.6-2.4C513.8,277,513.2,278.1,512.7,279.2Zm4,7.2c4.2,2.7,11-1.4,8.4-6.8-1.2-2.5-7.5-4.2-9.4-1.2C513.9,281.1,514.4,284.9,516.7,286.4Zm-3.8-3.4a0.62,0.62,0,0,0,.8-0.8C513,282.1,512.8,282.3,512.9,283Zm0.4,3c1.1,0.1,1.5-1.1.6-1.4C513.8,285.1,513.2,285.2,513.3,286Z" transform="translate(-396.2 -250.1)"/>
  <g id="_Group_" data-name="&lt;Group&gt;">
    <path id="_Compound_Path_11" data-name="&lt;Compound Path&gt;" class="cls-4" d="M396.2,304.3a3.17,3.17,0,0,1,.9-2.3,3.26,3.26,0,0,1,2.3-1,3,3,0,0,1,2.3,1,3.17,3.17,0,0,1,.9,2.3,5.85,5.85,0,0,1-.2,1.3,4.13,4.13,0,0,1-.7,1.1,3.59,3.59,0,0,1-1,.7,2.54,2.54,0,0,1-1.2.2,3,3,0,0,1-2.3-1A3.08,3.08,0,0,1,396.2,304.3Zm0.8,0.1a2.64,2.64,0,0,0,.7,1.9,2.84,2.84,0,0,0,1.7.7,2.29,2.29,0,0,0,1.7-.8,2.49,2.49,0,0,0,.7-1.9,2.64,2.64,0,0,0-.7-1.9,2.29,2.29,0,0,0-1.7-.8,2.14,2.14,0,0,0-1.7.8A2.88,2.88,0,0,0,397,304.4Z" transform="translate(-396.2 -250.1)"/>
    <path id="_Path_9" data-name="&lt;Path&gt;" class="cls-4" d="M407.2,307.5v-6.3h0.7v1a2.17,2.17,0,0,1,.9-0.8,3.54,3.54,0,0,1,1.1-.3,1.8,1.8,0,0,1,1.1.3,2.09,2.09,0,0,1,.8,1,4.71,4.71,0,0,1,1-1,2.38,2.38,0,0,1,1.2-.3,1.58,1.58,0,0,1,1.5.7,3.56,3.56,0,0,1,.5,1.9v3.8h-0.7V304a2.67,2.67,0,0,0-.4-1.7,1.15,1.15,0,0,0-1.1-.6,2,2,0,0,0-1.1.3,2.72,2.72,0,0,0-.8,1v4.4h-0.7V304a2.67,2.67,0,0,0-.4-1.7,1.15,1.15,0,0,0-1.1-.6,2,2,0,0,0-1.1.3,4.5,4.5,0,0,0-.9,1v4.4h-0.5v0.1Z" transform="translate(-396.2 -250.1)"/>
    <path id="_Compound_Path_12" data-name="&lt;Compound Path&gt;" class="cls-4" d="M422.7,306.8a3.38,3.38,0,0,1-1.2.6,5,5,0,0,1-1.2.2,2.94,2.94,0,0,1-2.2-.9,3.29,3.29,0,0,1-.8-2.5,3.37,3.37,0,0,1,.8-2.3,2.78,2.78,0,0,1,4-.1,3.07,3.07,0,0,1,.7,2.2H418v0.1a3.17,3.17,0,0,0,.6,2,2.14,2.14,0,0,0,1.7.8,5,5,0,0,0,1.2-.2,3.75,3.75,0,0,0,1.2-.7v0.8Zm-4.6-3.3H422a2.26,2.26,0,0,0-.6-1.3,1.9,1.9,0,0,0-1.3-.5,2.11,2.11,0,0,0-1.3.5A2.73,2.73,0,0,0,418.1,303.5Z" transform="translate(-396.2 -250.1)"/>
    <path id="_Path_10" data-name="&lt;Path&gt;" class="cls-4" d="M424.2,307.5V298h0.7v9.5h-0.7Z" transform="translate(-396.2 -250.1)"/>
    <path id="_Path_11" data-name="&lt;Path&gt;" class="cls-4" d="M426.6,307.5V298h0.7v4.2a1.89,1.89,0,0,1,1-.8,2.38,2.38,0,0,1,1.2-.3,1.86,1.86,0,0,1,1.6.7,2.71,2.71,0,0,1,.6,1.9v3.8H431V304a2.67,2.67,0,0,0-.4-1.7,1.31,1.31,0,0,0-1.2-.6,2.66,2.66,0,0,0-1.2.3,2.93,2.93,0,0,0-.9,1v4.4h-0.7v0.1Z" transform="translate(-396.2 -250.1)"/>
    <path id="_Compound_Path_13" data-name="&lt;Compound Path&gt;" class="cls-4" d="M432.7,304.3a3.17,3.17,0,0,1,.9-2.3,3.26,3.26,0,0,1,2.3-1,3,3,0,0,1,2.3,1,3.17,3.17,0,0,1,.9,2.3,5.85,5.85,0,0,1-.2,1.3,4.13,4.13,0,0,1-.7,1.1,3.59,3.59,0,0,1-1,.7,2.54,2.54,0,0,1-1.2.2,3,3,0,0,1-2.3-1A3.08,3.08,0,0,1,432.7,304.3Zm0.8,0.1a2.64,2.64,0,0,0,.7,1.9,2.46,2.46,0,0,0,1.7.8,2.29,2.29,0,0,0,1.7-.8,2.49,2.49,0,0,0,.7-1.9,2.64,2.64,0,0,0-.7-1.9,2.29,2.29,0,0,0-1.7-.8,2.14,2.14,0,0,0-1.7.8A2.49,2.49,0,0,0,433.5,304.4Z" transform="translate(-396.2 -250.1)"/>
    <path id="_Path_12" data-name="&lt;Path&gt;" class="cls-4" d="M440.4,307.5v-6.3h0.7v1.6a8.51,8.51,0,0,1,1-1.3,1.28,1.28,0,0,1,1-.4,0.75,0.75,0,0,1,.5.1,1.76,1.76,0,0,1,.5.4l-0.4.7a0.91,0.91,0,0,0-.5-0.3,0.76,0.76,0,0,0-.4-0.1,0.91,0.91,0,0,0-.8.4,8.51,8.51,0,0,0-1,1.3v4h-0.6v-0.1Z" transform="translate(-396.2 -250.1)"/>
    <path id="_Path_13" data-name="&lt;Path&gt;" class="cls-4" d="M452.6,307.2c-0.3.1-.5,0.2-0.8,0.3a2.2,2.2,0,0,1-.8.1,3.17,3.17,0,0,1-2.3-.9,3.24,3.24,0,0,1-.9-2.4,3.08,3.08,0,0,1,3.2-3.2,1.7,1.7,0,0,1,.7.1,1.85,1.85,0,0,1,.7.2v0.8c-0.2-.1-0.5-0.2-0.7-0.3a2,2,0,0,0-.8-0.1,2.14,2.14,0,0,0-1.7.8,2.49,2.49,0,0,0-.7,1.9,2.64,2.64,0,0,0,.7,1.9,2.29,2.29,0,0,0,1.7.8,2.2,2.2,0,0,0,.8-0.1,3,3,0,0,0,.8-0.4v0.5h0.1Z" transform="translate(-396.2 -250.1)"/>
    <path id="_Compound_Path_14" data-name="&lt;Compound Path&gt;" class="cls-4" d="M456.8,306.9a3.47,3.47,0,0,1-.9.6,2.92,2.92,0,0,1-.9.2,1.71,1.71,0,0,1-1.7-1.7,1.8,1.8,0,0,1,.9-1.6,5.77,5.77,0,0,1,2.6-.7V303a1.33,1.33,0,0,0-.3-1,1.49,1.49,0,0,0-1-.3,2.92,2.92,0,0,0-.9.2,3.74,3.74,0,0,0-1,.6v-0.7a4.67,4.67,0,0,1,1-.5,2.92,2.92,0,0,1,.9-0.2,2.07,2.07,0,0,1,1.5.5,2.35,2.35,0,0,1,.5,1.6v3.3a0.37,0.37,0,0,0,.1.3c0,0.1.1,0.1,0.2,0.1a0.76,0.76,0,0,0,.5-0.4l0.1-.1V307c-0.2.2-.4,0.3-0.5,0.4a0.6,0.6,0,0,1-.4.1,0.52,0.52,0,0,1-.4-0.2C456.8,307.3,456.8,307.1,456.8,306.9Zm0-.7v-2a4.06,4.06,0,0,0-2.1.5,1.41,1.41,0,0,0-.8,1.2,1.14,1.14,0,0,0,.3.8,1.22,1.22,0,0,0,.9.3,2.35,2.35,0,0,0,.8-0.2A6.78,6.78,0,0,0,456.8,306.2Z" transform="translate(-396.2 -250.1)"/>
    <path id="_Path_14" data-name="&lt;Path&gt;" class="cls-4" d="M459.2,307.5v-6.3h0.7v1a2.17,2.17,0,0,1,.9-0.8,3.54,3.54,0,0,1,1.1-.3,1.8,1.8,0,0,1,1.1.3,2.09,2.09,0,0,1,.8,1,4.71,4.71,0,0,1,1-1,2.38,2.38,0,0,1,1.2-.3,1.58,1.58,0,0,1,1.5.7,3.56,3.56,0,0,1,.5,1.9v3.8h-0.7V304a2.67,2.67,0,0,0-.4-1.7,1.15,1.15,0,0,0-1.1-.6,2,2,0,0,0-1.1.3,2.72,2.72,0,0,0-.8,1v4.4h-0.7V304a2.67,2.67,0,0,0-.4-1.7,1.15,1.15,0,0,0-1.1-.6,2,2,0,0,0-1.1.3,4.5,4.5,0,0,0-.9,1v4.4h-0.5v0.1Z" transform="translate(-396.2 -250.1)"/>
    <path id="_Compound_Path_15" data-name="&lt;Compound Path&gt;" class="cls-4" d="M469.7,299.1V298h0.7v1.2h-0.7v-0.1Zm0,8.4v-6.3h0.7v6.3h-0.7Z" transform="translate(-396.2 -250.1)"/>
    <path id="_Path_15" data-name="&lt;Path&gt;" class="cls-4" d="M472.1,307.5v-6.3h0.7v1a1.89,1.89,0,0,1,1-.8,2.28,2.28,0,0,1,1.1-.3,1.86,1.86,0,0,1,1.6.7,2.88,2.88,0,0,1,.6,1.9v3.8h-0.7V304a2.67,2.67,0,0,0-.4-1.7,1.31,1.31,0,0,0-1.2-.6,2,2,0,0,0-1.1.3,4.5,4.5,0,0,0-.9,1v4.4h-0.7v0.1Z" transform="translate(-396.2 -250.1)"/>
    <path id="_Path_16" data-name="&lt;Path&gt;" class="cls-4" d="M478.7,307.5V298h0.7v4.2a1.89,1.89,0,0,1,1-.8,2.38,2.38,0,0,1,1.2-.3,1.86,1.86,0,0,1,1.6.7,2.71,2.71,0,0,1,.6,1.9v3.8H483V304a2.67,2.67,0,0,0-.4-1.7,1.31,1.31,0,0,0-1.2-.6,2.66,2.66,0,0,0-1.2.3,2.93,2.93,0,0,0-.9,1v4.4h-0.6v0.1Z" transform="translate(-396.2 -250.1)"/>
    <path id="_Compound_Path_16" data-name="&lt;Compound Path&gt;" class="cls-4" d="M484.8,304.3a3.17,3.17,0,0,1,.9-2.3,3.26,3.26,0,0,1,2.3-1,3,3,0,0,1,2.3,1,3.17,3.17,0,0,1,.9,2.3,5.85,5.85,0,0,1-.2,1.3,4.13,4.13,0,0,1-.7,1.1,3.59,3.59,0,0,1-1,.7,2.54,2.54,0,0,1-1.2.2,3,3,0,0,1-2.3-1A2.76,2.76,0,0,1,484.8,304.3Zm0.8,0.1a2.64,2.64,0,0,0,.7,1.9,2.46,2.46,0,0,0,1.7.8,2.29,2.29,0,0,0,1.7-.8,2.49,2.49,0,0,0,.7-1.9,2.64,2.64,0,0,0-.7-1.9,2.29,2.29,0,0,0-1.7-.8,2.14,2.14,0,0,0-1.7.8A2.49,2.49,0,0,0,485.6,304.4Z" transform="translate(-396.2 -250.1)"/>
    <path id="_Compound_Path_17" data-name="&lt;Compound Path&gt;" class="cls-4" d="M495.9,310.7v-9.5h0.6v0.4a3,3,0,0,1,.8-0.4,2.77,2.77,0,0,1,.9-0.1,2.94,2.94,0,0,1,2.2.9,4,4,0,0,1,0,4.8,2.94,2.94,0,0,1-2.2.9,2.48,2.48,0,0,1-.9-0.1,3,3,0,0,1-.8-0.4v3.6h-0.6v-0.1Zm0.6-8.3v3.8a3,3,0,0,0,.7.5,2.39,2.39,0,0,0,.9.2,2.19,2.19,0,0,0,1.7-.7,3.31,3.31,0,0,0,0-3.8,2.06,2.06,0,0,0-1.7-.7,2.92,2.92,0,0,0-.9.2A1.79,1.79,0,0,0,496.5,302.4Z" transform="translate(-396.2 -250.1)"/>
    <path id="_Compound_Path_18" data-name="&lt;Compound Path&gt;" class="cls-4" d="M505.6,306.9a3.47,3.47,0,0,1-.9.6,2.92,2.92,0,0,1-.9.2,1.66,1.66,0,0,1-1.2-.5,1.74,1.74,0,0,1-.6-1.2,1.8,1.8,0,0,1,.9-1.6,5.77,5.77,0,0,1,2.6-.7V303a1.33,1.33,0,0,0-.3-1,1.49,1.49,0,0,0-1-.3,2.92,2.92,0,0,0-.9.2,3.74,3.74,0,0,0-1,.6v-0.7a4.67,4.67,0,0,1,1-.5,2.92,2.92,0,0,1,.9-0.2,2.07,2.07,0,0,1,1.5.5,2.35,2.35,0,0,1,.5,1.6v3.3a0.37,0.37,0,0,0,.1.3c0,0.1.1,0.1,0.2,0.1a0.76,0.76,0,0,0,.5-0.4l0.1-.1V307c-0.2.2-.4,0.3-0.5,0.4a0.76,0.76,0,0,1-.4.1,0.52,0.52,0,0,1-.4-0.2C505.6,307.3,505.6,307.1,505.6,306.9Zm0-.7v-2a4.06,4.06,0,0,0-2.1.5,1.41,1.41,0,0,0-.8,1.2,1.14,1.14,0,0,0,.3.8,1.22,1.22,0,0,0,.9.3,2.35,2.35,0,0,0,.8-0.2A6.78,6.78,0,0,0,505.6,306.2Z" transform="translate(-396.2 -250.1)"/>
    <path id="_Path_17" data-name="&lt;Path&gt;" class="cls-4" d="M508.1,307.5v-6.3h0.7v1.6a8.51,8.51,0,0,1,1-1.3,1.28,1.28,0,0,1,1-.4,0.75,0.75,0,0,1,.5.1,1.76,1.76,0,0,1,.5.4l-0.4.7a0.91,0.91,0,0,0-.5-0.3,0.76,0.76,0,0,0-.4-0.1,0.91,0.91,0,0,0-.8.4,8.51,8.51,0,0,0-1,1.3v4h-0.6v-0.1Z" transform="translate(-396.2 -250.1)"/>
    <path id="_Compound_Path_19" data-name="&lt;Compound Path&gt;" class="cls-4" d="M515.6,306.9a3.47,3.47,0,0,1-.9.6,2.92,2.92,0,0,1-.9.2,1.71,1.71,0,0,1-1.7-1.7,1.8,1.8,0,0,1,.9-1.6,5.77,5.77,0,0,1,2.6-.7V303a1.33,1.33,0,0,0-.3-1,1.49,1.49,0,0,0-1-.3,2.92,2.92,0,0,0-.9.2,3.74,3.74,0,0,0-1,.6v-0.7a4.67,4.67,0,0,1,1-.5,2.92,2.92,0,0,1,.9-0.2,2.07,2.07,0,0,1,1.5.5,2.35,2.35,0,0,1,.5,1.6v3.3a0.37,0.37,0,0,0,.1.3c0,0.1.1,0.1,0.2,0.1a0.76,0.76,0,0,0,.5-0.4l0.1-.1V307c-0.2.2-.4,0.3-0.5,0.4a0.76,0.76,0,0,1-.4.1,0.52,0.52,0,0,1-.4-0.2A0.35,0.35,0,0,1,515.6,306.9Zm0-.7v-2a4.06,4.06,0,0,0-2.1.5,1.41,1.41,0,0,0-.8,1.2,1.14,1.14,0,0,0,.3.8,1.22,1.22,0,0,0,.9.3A2.79,2.79,0,0,0,515.6,306.2Z" transform="translate(-396.2 -250.1)"/>
    <path id="_Path_18" data-name="&lt;Path&gt;" class="cls-4" d="M521.1,306.4a4.05,4.05,0,0,0,.9.5,2.92,2.92,0,0,0,.9.2,1.22,1.22,0,0,0,.9-0.3,1.14,1.14,0,0,0,.3-0.8,1.45,1.45,0,0,0-1.2-1.2,2.57,2.57,0,0,1-.5-0.2,2,2,0,0,1-1-.7,1.69,1.69,0,0,1-.3-1,1.66,1.66,0,0,1,.5-1.2,2.17,2.17,0,0,1,1.4-.5,2.2,2.2,0,0,1,.8.1,3.55,3.55,0,0,1,.9.4v0.7a4.05,4.05,0,0,0-.9-0.5,3.09,3.09,0,0,0-.8-0.2,1.2,1.2,0,0,0-1.3,1.1,0.91,0.91,0,0,0,.3.7,3.26,3.26,0,0,0,1.2.6,5,5,0,0,1,1.3.7,1.69,1.69,0,0,1,.3,1,1.73,1.73,0,0,1-.5,1.3,2.46,2.46,0,0,1-1.5.5,2.77,2.77,0,0,1-.9-0.1,3.55,3.55,0,0,1-.9-0.4v-0.7h0.1Z" transform="translate(-396.2 -250.1)"/>
    <path id="_Path_19" data-name="&lt;Path&gt;" class="cls-4" d="M530.4,306.5a2.54,2.54,0,0,1-1,.8,2.38,2.38,0,0,1-1.2.3,1.86,1.86,0,0,1-1.6-.7,2.71,2.71,0,0,1-.6-1.9v-3.9h0.7v3.5a2.67,2.67,0,0,0,.4,1.7,1.31,1.31,0,0,0,1.2.6,2,2,0,0,0,1.1-.3,3,3,0,0,0,.9-1v-4.5H531v6.3h-0.7v-0.9h0.1Z" transform="translate(-396.2 -250.1)"/>
    <path id="_Compound_Path_20" data-name="&lt;Compound Path&gt;" class="cls-4" d="M535.9,306.9a3.47,3.47,0,0,1-.9.6,2.92,2.92,0,0,1-.9.2,1.71,1.71,0,0,1-1.7-1.7,1.8,1.8,0,0,1,.9-1.6,5.77,5.77,0,0,1,2.6-.7V303a1.33,1.33,0,0,0-.3-1,1.49,1.49,0,0,0-1-.3,2.92,2.92,0,0,0-.9.2,3.74,3.74,0,0,0-1,.6v-0.7a4.67,4.67,0,0,1,1-.5,2.92,2.92,0,0,1,.9-0.2,2.07,2.07,0,0,1,1.5.5,2.35,2.35,0,0,1,.5,1.6v3.3a0.37,0.37,0,0,0,.1.3c0,0.1.1,0.1,0.2,0.1a0.76,0.76,0,0,0,.5-0.4l0.1-.1V307c-0.2.2-.4,0.3-0.5,0.4a0.76,0.76,0,0,1-.4.1,0.52,0.52,0,0,1-.4-0.2C535.9,307.3,535.9,307.1,535.9,306.9Zm0-.7v-2a4.06,4.06,0,0,0-2.1.5,1.56,1.56,0,0,0-.8,1.3,1.14,1.14,0,0,0,.3.8,1.22,1.22,0,0,0,.9.3,2.35,2.35,0,0,0,.8-0.2A9.69,9.69,0,0,1,535.9,306.2Z" transform="translate(-396.2 -250.1)"/>
    <path id="_Path_20" data-name="&lt;Path&gt;" class="cls-4" d="M543.6,307.6l-2.7-6.4h0.8l2.2,5.2,2.1-5.2h0.7l-2.6,6.4h-0.5Z" transform="translate(-396.2 -250.1)"/>
    <path id="_Compound_Path_21" data-name="&lt;Compound Path&gt;" class="cls-4" d="M550.6,306.9a3.47,3.47,0,0,1-.9.6,2.92,2.92,0,0,1-.9.2,1.66,1.66,0,0,1-1.2-.5,1.74,1.74,0,0,1-.6-1.2,1.8,1.8,0,0,1,.9-1.6,5.77,5.77,0,0,1,2.6-.7V303a1.33,1.33,0,0,0-.3-1,1.49,1.49,0,0,0-1-.3,2.92,2.92,0,0,0-.9.2,3.74,3.74,0,0,0-1,.6v-0.7a4.67,4.67,0,0,1,1-.5,2.92,2.92,0,0,1,.9-0.2,2.07,2.07,0,0,1,1.5.5,2.35,2.35,0,0,1,.5,1.6v3.3a0.37,0.37,0,0,0,.1.3c0,0.1.1,0.1,0.2,0.1a0.76,0.76,0,0,0,.5-0.4l0.1-.1V307c-0.2.2-.4,0.3-0.5,0.4a0.76,0.76,0,0,1-.4.1,0.52,0.52,0,0,1-.4-0.2C550.6,307.3,550.6,307.1,550.6,306.9Zm-0.1-.7v-2a4.06,4.06,0,0,0-2.1.5,1.41,1.41,0,0,0-.8,1.2,1.14,1.14,0,0,0,.3.8,1.22,1.22,0,0,0,.9.3A2.79,2.79,0,0,0,550.5,306.2Z" transform="translate(-396.2 -250.1)"/>
    <path id="_Compound_Path_22" data-name="&lt;Compound Path&gt;" class="cls-4" d="M554.2,305.5a2.42,2.42,0,0,1-1.1-.8,2.24,2.24,0,0,1-.1-2.4,3,3,0,0,1,.8-0.8,1.42,1.42,0,0,1,.6-0.2c0.2,0,.6-0.1,1.1-0.1h2.3v0.6h-1.3a2.41,2.41,0,0,1,.6.8,1.49,1.49,0,0,1,.2.9,2.17,2.17,0,0,1-.5,1.4,2.68,2.68,0,0,1-1.5.8,4.33,4.33,0,0,1-.5.1c-0.7.2-1.1,0.4-1.1,0.8s0.5,0.5,1.5.6h0.1a5.65,5.65,0,0,1,2,.5,1.25,1.25,0,0,1,.5,1.2,1.51,1.51,0,0,1-.7,1.4,4.14,4.14,0,0,1-2.1.4,3.36,3.36,0,0,1-1.9-.4,1.52,1.52,0,0,1-.7-1.2,1.16,1.16,0,0,1,.4-1,2.2,2.2,0,0,1,1.2-.5,1.63,1.63,0,0,1-.6-0.3,0.85,0.85,0,0,1-.2-0.6,0.86,0.86,0,0,1,.3-0.6A1.06,1.06,0,0,1,554.2,305.5Zm0.8,2.3a2.81,2.81,0,0,0-1.5.3,1.05,1.05,0,0,0-.5.9,1,1,0,0,0,.5.8,3.06,3.06,0,0,0,1.5.3,3.51,3.51,0,0,0,1.6-.3,0.87,0.87,0,0,0,.5-0.9,0.89,0.89,0,0,0-.5-0.8A3.23,3.23,0,0,0,555,307.8Zm-1.6-4.3a1.56,1.56,0,0,0,2.7,1.1,1.66,1.66,0,0,0,.5-1.2,1.85,1.85,0,0,0-.5-1.2,1.46,1.46,0,0,0-2.2,0A1.66,1.66,0,0,0,553.4,303.5Z" transform="translate(-396.2 -250.1)"/>
    <path id="_Compound_Path_23" data-name="&lt;Compound Path&gt;" class="cls-4" d="M561.8,306.9a3.47,3.47,0,0,1-.9.6,2.92,2.92,0,0,1-.9.2,1.71,1.71,0,0,1-1.7-1.7,1.8,1.8,0,0,1,.9-1.6,5.77,5.77,0,0,1,2.6-.7V303a1.33,1.33,0,0,0-.3-1,1.49,1.49,0,0,0-1-.3,2.92,2.92,0,0,0-.9.2,3.74,3.74,0,0,0-1,.6v-0.7a4.67,4.67,0,0,1,1-.5,2.92,2.92,0,0,1,.9-0.2,2.07,2.07,0,0,1,1.5.5,2.35,2.35,0,0,1,.5,1.6v3.3a0.37,0.37,0,0,0,.1.3c0,0.1.1,0.1,0.2,0.1a0.76,0.76,0,0,0,.5-0.4l0.1-.1V307c-0.2.2-.4,0.3-0.5,0.4a0.76,0.76,0,0,1-.4.1,0.52,0.52,0,0,1-.4-0.2A0.35,0.35,0,0,1,561.8,306.9Zm0-.7v-2a4.06,4.06,0,0,0-2.1.5,1.41,1.41,0,0,0-.8,1.2,1.14,1.14,0,0,0,.3.8,1.22,1.22,0,0,0,.9.3A2.79,2.79,0,0,0,561.8,306.2Z" transform="translate(-396.2 -250.1)"/>
  </g>
</svg>
